<svg xmlns="http://www.w3.org/2000/svg" viewBox="0 0 1940 900" width="1940" height="900" font-family="Noto Sans KR, Apple SD Gothic Neo, Malgun Gothic, sans-serif">
<defs>
  <clipPath id="qa"><rect x="40" y="120" width="340" height="700" rx="26"/></clipPath>
  <clipPath id="qb"><rect x="420" y="120" width="340" height="700" rx="26"/></clipPath>
  <clipPath id="qc"><rect x="800" y="120" width="340" height="700" rx="26"/></clipPath>
  <clipPath id="qd"><rect x="1180" y="120" width="340" height="700" rx="26"/></clipPath>
  <clipPath id="qe"><rect x="1560" y="120" width="340" height="700" rx="26"/></clipPath>
</defs>

<rect width="1940" height="900" fill="#eef1f6"/>
<text x="40" y="48" font-size="22" font-weight="800" fill="#1a2233" letter-spacing="-0.5">끝난 주 · 케이스별 화면</text>
<text x="40" y="74" font-size="13.5" fill="#8892a6">끝난 주는 횟수를 세지 않는다. 기본은 재분석 불가이고, 읽는 데이터가 달라졌을 때만 열린다. 열릴 때는 왜 열렸는지 사유를 함께 보여준다. (AI인사이트_화면정의서 §3.3 · §3.4 · §9)</text>

<!-- ===== ① 재분석 불가 ===== -->
<g clip-path="url(#qa)">
  <rect x="40" y="120" width="340" height="700" fill="#ffffff"/>
  <text x="64" y="162" font-size="19" font-weight="800" fill="#1a2233">생활</text>
  <text x="64" y="182" font-size="11.5" fill="#8892a6">8월 3주차</text>
  <rect x="296" y="146" width="60" height="26" rx="13" fill="#2f66f5"/>
  <text x="326" y="163" font-size="11.5" fill="#ffffff" text-anchor="middle">오늘</text>
  <g font-size="10.5" fill="#b6c0d1" text-anchor="middle">
    <text x="78" y="206">일</text><text x="118" y="206">월</text><text x="158" y="206">화</text><text x="198" y="206">수</text><text x="238" y="206">목</text><text x="278" y="206">금</text><text x="318" y="206">토</text>
  </g>
  <g font-size="12" font-weight="600" fill="#4b5468" text-anchor="middle">
    <text x="78" y="230">10</text><text x="118" y="230">11</text><text x="158" y="230">12</text><text x="198" y="230">13</text><text x="238" y="230">14</text><text x="278" y="230">15</text><text x="318" y="230">16</text>
  </g>
  <g font-size="11" fill="#8892a6" text-anchor="middle">
    <text x="84" y="262">목표 분석</text><text x="152" y="262">지표별 분석</text><text x="224" y="262">생활 분석</text>
    <text x="308" y="262" fill="#2f66f5" font-weight="700">AI 인사이트</text>
  </g>
  <rect x="272" y="270" width="72" height="2.5" fill="#2f66f5"/>
  <rect x="40" y="272" width="340" height="1" fill="#e6eaf2"/>
  <rect x="40" y="273" width="340" height="547" fill="#f5f7fb"/>

  <text x="64" y="304" font-size="15" font-weight="800" fill="#1a2233">8월 3주 인사이트</text>
  <rect x="58" y="318" width="304" height="152" rx="14" fill="#ffffff" stroke="#e6eaf2"/>
  <rect x="74" y="336" width="272" height="44" rx="8" fill="#f2f6ff"/>
  <text x="86" y="354" font-size="11.5" font-weight="700" fill="#1a2233">수면과 활동량이 모두 안정적이었던</text>
  <text x="86" y="370" font-size="11.5" font-weight="700" fill="#1a2233">한 주였습니다.</text>
  <text x="76" y="402" font-size="11" fill="#8892a6">종합 점수</text>
  <text x="76" y="432" font-size="26" font-weight="800" fill="#2f66f5">85</text>
  <text x="108" y="432" font-size="11.5" fill="#8892a6">/ 100</text>
  <text x="346" y="432" font-size="11" fill="#8892a6" text-anchor="end">지난주 대비 ▲ 3</text>
  <rect x="76" y="446" width="270" height="6" rx="3" fill="#e9edf5"/>
  <rect x="76" y="446" width="230" height="6" rx="3" fill="#2f66f5"/>

  <rect x="58" y="484" width="304" height="40" rx="10" fill="#ffffff" stroke="#d8dee9"/>
  <text x="210" y="509" font-size="12.5" font-weight="700" fill="#4b5468" text-anchor="middle">자세히 보기</text>
  <rect x="58" y="538" width="304" height="44" rx="10" fill="#e9edf3"/>
  <text x="210" y="566" font-size="13" font-weight="700" fill="#aab3c2" text-anchor="middle">다시 분석하기</text>
  <text x="210" y="600" font-size="11.5" fill="#8892a6" text-anchor="middle">새로 반영할 기록이 없어요</text>

  <rect x="40" y="756" width="340" height="64" fill="#ffffff"/>
  <rect x="40" y="756" width="340" height="1" fill="#e6eaf2"/>
  <g font-size="9.5" fill="#b6c0d1" text-anchor="middle">
    <text x="82" y="796">홈</text><text x="167" y="796" fill="#2f66f5" font-weight="700">생활</text><text x="252" y="796">병원</text><text x="337" y="796">더보기</text>
  </g>
</g>
<rect x="40" y="120" width="340" height="700" rx="26" fill="none" stroke="#dbe1ea" stroke-width="1.5"/>
<rect x="40" y="96" width="222" height="22" rx="11" fill="#8892a6"/>
<text x="151" y="111" font-size="11.5" font-weight="700" fill="#ffffff" text-anchor="middle">① 재분석 불가 (기본 상태)</text>
<text x="40" y="844" font-size="11.5" fill="#4b5468">기간이 고정돼 다시 눌러도 같은 결과가 나온다.</text>
<text x="40" y="862" font-size="11.5" fill="#4b5468">끝난 주는 남은 횟수를 쓰지 않는다.</text>

<!-- ===== ② 주 종료 직후 ===== -->
<g clip-path="url(#qb)">
  <rect x="420" y="120" width="340" height="700" fill="#ffffff"/>
  <text x="444" y="162" font-size="19" font-weight="800" fill="#1a2233">생활</text>
  <text x="444" y="182" font-size="11.5" fill="#8892a6">8월 4주차</text>
  <rect x="676" y="146" width="60" height="26" rx="13" fill="#2f66f5"/>
  <text x="706" y="163" font-size="11.5" fill="#ffffff" text-anchor="middle">오늘</text>
  <g font-size="10.5" fill="#b6c0d1" text-anchor="middle">
    <text x="458" y="206">일</text><text x="498" y="206">월</text><text x="538" y="206">화</text><text x="578" y="206">수</text><text x="618" y="206">목</text><text x="658" y="206">금</text><text x="698" y="206">토</text>
  </g>
  <g font-size="12" font-weight="600" fill="#4b5468" text-anchor="middle">
    <text x="458" y="230">17</text><text x="498" y="230">18</text><text x="538" y="230">19</text><text x="578" y="230">20</text><text x="618" y="230">21</text><text x="658" y="230">22</text><text x="698" y="230">23</text>
  </g>
  <g font-size="11" fill="#8892a6" text-anchor="middle">
    <text x="464" y="262">목표 분석</text><text x="532" y="262">지표별 분석</text><text x="604" y="262">생활 분석</text>
    <text x="688" y="262" fill="#2f66f5" font-weight="700">AI 인사이트</text>
  </g>
  <rect x="652" y="270" width="72" height="2.5" fill="#2f66f5"/>
  <rect x="420" y="272" width="340" height="1" fill="#e6eaf2"/>
  <rect x="420" y="273" width="340" height="547" fill="#f5f7fb"/>

  <text x="444" y="300" font-size="15" font-weight="800" fill="#1a2233">8월 4주 인사이트</text>
  <text x="444" y="318" font-size="11" fill="#8892a6">최근 7일 기준으로 분석한 결과예요</text>
  <rect x="438" y="330" width="304" height="152" rx="14" fill="#ffffff" stroke="#e6eaf2"/>
  <rect x="454" y="348" width="272" height="44" rx="8" fill="#f2f6ff"/>
  <text x="466" y="366" font-size="11.5" font-weight="700" fill="#1a2233">활동량은 우수하지만 수면 부족과</text>
  <text x="466" y="382" font-size="11.5" font-weight="700" fill="#1a2233">평균 심박수 상승이 확인됩니다.</text>
  <text x="456" y="414" font-size="11" fill="#8892a6">종합 점수</text>
  <text x="456" y="444" font-size="26" font-weight="800" fill="#2f66f5">80</text>
  <text x="488" y="444" font-size="11.5" fill="#8892a6">/ 100</text>
  <text x="726" y="444" font-size="11" fill="#8892a6" text-anchor="end">지난주 대비 ▼ 5</text>
  <rect x="456" y="458" width="270" height="6" rx="3" fill="#e9edf5"/>
  <rect x="456" y="458" width="216" height="6" rx="3" fill="#2f66f5"/>

  <rect x="438" y="496" width="304" height="40" rx="10" fill="#ffffff" stroke="#d8dee9"/>
  <text x="590" y="521" font-size="12.5" font-weight="700" fill="#4b5468" text-anchor="middle">자세히 보기</text>
  <rect x="438" y="550" width="304" height="44" rx="10" fill="#2f66f5"/>
  <text x="590" y="578" font-size="13" font-weight="700" fill="#ffffff" text-anchor="middle">한 주 전체로 다시 분석하기</text>
  <text x="590" y="612" font-size="11.5" fill="#8892a6" text-anchor="middle">이번 주가 끝났어요.</text>
  <text x="590" y="629" font-size="11.5" fill="#8892a6" text-anchor="middle">월~일 기록 전체로 다시 볼 수 있어요</text>

  <rect x="420" y="756" width="340" height="64" fill="#ffffff"/>
  <rect x="420" y="756" width="340" height="1" fill="#e6eaf2"/>
  <g font-size="9.5" fill="#b6c0d1" text-anchor="middle">
    <text x="462" y="796">홈</text><text x="547" y="796" fill="#2f66f5" font-weight="700">생활</text><text x="632" y="796">병원</text><text x="717" y="796">더보기</text>
  </g>
</g>
<rect x="420" y="120" width="340" height="700" rx="26" fill="none" stroke="#dbe1ea" stroke-width="1.5"/>
<rect x="420" y="96" width="222" height="22" rx="11" fill="#2f66f5"/>
<text x="531" y="111" font-size="11.5" font-weight="700" fill="#ffffff" text-anchor="middle">② 주 종료 직후 · 1회 열림</text>
<text x="420" y="844" font-size="11.5" fill="#4b5468">주중에 만든 결과라 기준 안내가 남아 있다.</text>
<text x="420" y="862" font-size="11.5" fill="#4b5468">버튼 문구로 무엇이 달라지는지 알린다.</text>
<text x="420" y="880" font-size="11.5" fill="#8892a6">다시 분석하면 기준 안내가 사라진다.</text>

<!-- ===== ③ 검진정보 연동 ===== -->
<g clip-path="url(#qc)">
  <rect x="800" y="120" width="340" height="700" fill="#ffffff"/>
  <text x="824" y="162" font-size="19" font-weight="800" fill="#1a2233">생활</text>
  <text x="824" y="182" font-size="11.5" fill="#8892a6">8월 3주차</text>
  <rect x="1056" y="146" width="60" height="26" rx="13" fill="#2f66f5"/>
  <text x="1086" y="163" font-size="11.5" fill="#ffffff" text-anchor="middle">오늘</text>
  <g font-size="10.5" fill="#b6c0d1" text-anchor="middle">
    <text x="838" y="206">일</text><text x="878" y="206">월</text><text x="918" y="206">화</text><text x="958" y="206">수</text><text x="998" y="206">목</text><text x="1038" y="206">금</text><text x="1078" y="206">토</text>
  </g>
  <g font-size="12" font-weight="600" fill="#4b5468" text-anchor="middle">
    <text x="838" y="230">10</text><text x="878" y="230">11</text><text x="918" y="230">12</text><text x="958" y="230">13</text><text x="998" y="230">14</text><text x="1038" y="230">15</text><text x="1078" y="230">16</text>
  </g>
  <g font-size="11" fill="#8892a6" text-anchor="middle">
    <text x="844" y="262">목표 분석</text><text x="912" y="262">지표별 분석</text><text x="984" y="262">생활 분석</text>
    <text x="1068" y="262" fill="#2f66f5" font-weight="700">AI 인사이트</text>
  </g>
  <rect x="1032" y="270" width="72" height="2.5" fill="#2f66f5"/>
  <rect x="800" y="272" width="340" height="1" fill="#e6eaf2"/>
  <rect x="800" y="273" width="340" height="547" fill="#f5f7fb"/>

  <text x="824" y="304" font-size="15" font-weight="800" fill="#1a2233">8월 3주 인사이트</text>
  <rect x="818" y="318" width="304" height="152" rx="14" fill="#ffffff" stroke="#e6eaf2"/>
  <rect x="834" y="336" width="272" height="44" rx="8" fill="#f2f6ff"/>
  <text x="846" y="354" font-size="11.5" font-weight="700" fill="#1a2233">수면과 활동량이 모두 안정적이었던</text>
  <text x="846" y="370" font-size="11.5" font-weight="700" fill="#1a2233">한 주였습니다.</text>
  <text x="836" y="402" font-size="11" fill="#8892a6">종합 점수</text>
  <text x="836" y="432" font-size="26" font-weight="800" fill="#2f66f5">85</text>
  <text x="868" y="432" font-size="11.5" fill="#8892a6">/ 100</text>
  <text x="1106" y="432" font-size="11" fill="#8892a6" text-anchor="end">지난주 대비 ▲ 3</text>
  <rect x="836" y="446" width="270" height="6" rx="3" fill="#e9edf5"/>
  <rect x="836" y="446" width="230" height="6" rx="3" fill="#2f66f5"/>

  <rect x="818" y="484" width="304" height="40" rx="10" fill="#ffffff" stroke="#d8dee9"/>
  <text x="970" y="509" font-size="12.5" font-weight="700" fill="#4b5468" text-anchor="middle">자세히 보기</text>
  <rect x="818" y="538" width="304" height="44" rx="10" fill="#2f66f5"/>
  <text x="970" y="566" font-size="13" font-weight="700" fill="#ffffff" text-anchor="middle">다시 분석하기</text>
  <text x="970" y="600" font-size="11.5" fill="#8892a6" text-anchor="middle">검진정보가 연동돼</text>
  <text x="970" y="617" font-size="11.5" fill="#8892a6" text-anchor="middle">다시 분석할 수 있어요</text>

  <rect x="800" y="756" width="340" height="64" fill="#ffffff"/>
  <rect x="800" y="756" width="340" height="1" fill="#e6eaf2"/>
  <g font-size="9.5" fill="#b6c0d1" text-anchor="middle">
    <text x="842" y="796">홈</text><text x="927" y="796" fill="#2f66f5" font-weight="700">생활</text><text x="1012" y="796">병원</text><text x="1097" y="796">더보기</text>
  </g>
</g>
<rect x="800" y="120" width="340" height="700" rx="26" fill="none" stroke="#dbe1ea" stroke-width="1.5"/>
<rect x="800" y="96" width="222" height="22" rx="11" fill="#2f66f5"/>
<text x="911" y="111" font-size="11.5" font-weight="700" fill="#ffffff" text-anchor="middle">③ 검진정보 연동 · 1회 열림</text>
<text x="800" y="844" font-size="11.5" fill="#4b5468">읽는 데이터가 늘어 결과가 실제로 달라진다.</text>
<text x="800" y="862" font-size="11.5" fill="#4b5468">건강검진 영역 카드가 새로 생긴다.</text>
<text x="800" y="880" font-size="11.5" fill="#8892a6">연동 시점 이전 주차 모두에 열린다.</text>

<!-- ===== ④ 기록 추가 ===== -->
<g clip-path="url(#qd)">
  <rect x="1180" y="120" width="340" height="700" fill="#ffffff"/>
  <text x="1204" y="162" font-size="19" font-weight="800" fill="#1a2233">생활</text>
  <text x="1204" y="182" font-size="11.5" fill="#8892a6">8월 3주차</text>
  <rect x="1436" y="146" width="60" height="26" rx="13" fill="#2f66f5"/>
  <text x="1466" y="163" font-size="11.5" fill="#ffffff" text-anchor="middle">오늘</text>
  <g font-size="10.5" fill="#b6c0d1" text-anchor="middle">
    <text x="1218" y="206">일</text><text x="1258" y="206">월</text><text x="1298" y="206">화</text><text x="1338" y="206">수</text><text x="1378" y="206">목</text><text x="1418" y="206">금</text><text x="1458" y="206">토</text>
  </g>
  <g font-size="12" font-weight="600" fill="#4b5468" text-anchor="middle">
    <text x="1218" y="230">10</text><text x="1258" y="230">11</text><text x="1298" y="230">12</text><text x="1338" y="230">13</text><text x="1378" y="230">14</text><text x="1418" y="230">15</text><text x="1458" y="230">16</text>
  </g>
  <g font-size="11" fill="#8892a6" text-anchor="middle">
    <text x="1224" y="262">목표 분석</text><text x="1292" y="262">지표별 분석</text><text x="1364" y="262">생활 분석</text>
    <text x="1448" y="262" fill="#2f66f5" font-weight="700">AI 인사이트</text>
  </g>
  <rect x="1412" y="270" width="72" height="2.5" fill="#2f66f5"/>
  <rect x="1180" y="272" width="340" height="1" fill="#e6eaf2"/>
  <rect x="1180" y="273" width="340" height="547" fill="#f5f7fb"/>

  <text x="1204" y="304" font-size="15" font-weight="800" fill="#1a2233">8월 3주 인사이트</text>
  <rect x="1198" y="318" width="304" height="152" rx="14" fill="#ffffff" stroke="#e6eaf2"/>
  <rect x="1214" y="336" width="272" height="44" rx="8" fill="#f2f6ff"/>
  <text x="1226" y="354" font-size="11.5" font-weight="700" fill="#1a2233">기록이 사흘뿐이라 흐름을 읽기에는</text>
  <text x="1226" y="370" font-size="11.5" font-weight="700" fill="#1a2233">이른 편입니다.</text>
  <text x="1216" y="402" font-size="11" fill="#8892a6">종합 점수</text>
  <text x="1216" y="432" font-size="26" font-weight="800" fill="#2f66f5">74</text>
  <text x="1248" y="432" font-size="11.5" fill="#8892a6">/ 100</text>
  <text x="1486" y="432" font-size="11" fill="#8892a6" text-anchor="end">지난주 대비 ▼ 8</text>
  <rect x="1216" y="446" width="270" height="6" rx="3" fill="#e9edf5"/>
  <rect x="1216" y="446" width="200" height="6" rx="3" fill="#2f66f5"/>

  <rect x="1198" y="484" width="304" height="40" rx="10" fill="#ffffff" stroke="#d8dee9"/>
  <text x="1350" y="509" font-size="12.5" font-weight="700" fill="#4b5468" text-anchor="middle">자세히 보기</text>
  <rect x="1198" y="538" width="304" height="44" rx="10" fill="#2f66f5"/>
  <text x="1350" y="566" font-size="13" font-weight="700" fill="#ffffff" text-anchor="middle">다시 분석하기</text>
  <text x="1350" y="600" font-size="11.5" fill="#8892a6" text-anchor="middle">기록이 추가돼</text>
  <text x="1350" y="617" font-size="11.5" fill="#8892a6" text-anchor="middle">다시 분석할 수 있어요</text>

  <rect x="1180" y="756" width="340" height="64" fill="#ffffff"/>
  <rect x="1180" y="756" width="340" height="1" fill="#e6eaf2"/>
  <g font-size="9.5" fill="#b6c0d1" text-anchor="middle">
    <text x="1222" y="796">홈</text><text x="1307" y="796" fill="#2f66f5" font-weight="700">생활</text><text x="1392" y="796">병원</text><text x="1477" y="796">더보기</text>
  </g>
</g>
<rect x="1180" y="120" width="340" height="700" rx="26" fill="none" stroke="#dbe1ea" stroke-width="1.5"/>
<rect x="1180" y="96" width="222" height="22" rx="11" fill="#2f66f5"/>
<text x="1291" y="111" font-size="11.5" font-weight="700" fill="#ffffff" text-anchor="middle">④ 기록 추가 · 1회 열림</text>
<text x="1180" y="844" font-size="11.5" fill="#4b5468">기기를 늦게 동기화해 기록 일수가 늘어난 경우.</text>
<text x="1180" y="862" font-size="11.5" fill="#4b5468">기록이 적다고 밝혔던 주차일수록 실익이 크다.</text>
<text x="1180" y="880" font-size="11.5" fill="#8892a6">늘어난 만큼 또 열린다.</text>

<!-- ===== ⑤ 소급 범위 밖 ===== -->
<g clip-path="url(#qe)">
  <rect x="1560" y="120" width="340" height="700" fill="#ffffff"/>
  <text x="1584" y="162" font-size="19" font-weight="800" fill="#1a2233">생활</text>
  <text x="1584" y="182" font-size="11.5" fill="#8892a6">7월 3주차</text>
  <rect x="1816" y="146" width="60" height="26" rx="13" fill="#2f66f5"/>
  <text x="1846" y="163" font-size="11.5" fill="#ffffff" text-anchor="middle">오늘</text>
  <g font-size="10.5" fill="#b6c0d1" text-anchor="middle">
    <text x="1598" y="206">일</text><text x="1638" y="206">월</text><text x="1678" y="206">화</text><text x="1718" y="206">수</text><text x="1758" y="206">목</text><text x="1798" y="206">금</text><text x="1838" y="206">토</text>
  </g>
  <g font-size="12" font-weight="600" fill="#b6c0d1" text-anchor="middle">
    <text x="1598" y="230">13</text><text x="1638" y="230">14</text><text x="1678" y="230">15</text><text x="1718" y="230">16</text><text x="1758" y="230">17</text><text x="1798" y="230">18</text><text x="1838" y="230">19</text>
  </g>
  <g font-size="11" fill="#8892a6" text-anchor="middle">
    <text x="1604" y="262">목표 분석</text><text x="1672" y="262">지표별 분석</text><text x="1744" y="262">생활 분석</text>
    <text x="1828" y="262" fill="#2f66f5" font-weight="700">AI 인사이트</text>
  </g>
  <rect x="1792" y="270" width="72" height="2.5" fill="#2f66f5"/>
  <rect x="1560" y="272" width="340" height="1" fill="#e6eaf2"/>
  <rect x="1560" y="273" width="340" height="547" fill="#f5f7fb"/>

  <rect x="1578" y="318" width="304" height="132" rx="14" fill="#ffffff" stroke="#e6eaf2"/>
  <circle cx="1730" cy="366" r="22" fill="#f1f3f7"/>
  <path d="M1722 366 h16" stroke="#aab3c2" stroke-width="2.5" stroke-linecap="round"/>
  <text x="1730" y="410" font-size="12.5" font-weight="700" fill="#4b5468" text-anchor="middle">분석 기록이 없어요</text>
  <text x="1730" y="430" font-size="11.5" fill="#8892a6" text-anchor="middle">지난 기록은 분석할 수 없어요</text>

  <rect x="1560" y="756" width="340" height="64" fill="#ffffff"/>
  <rect x="1560" y="756" width="340" height="1" fill="#e6eaf2"/>
  <g font-size="9.5" fill="#b6c0d1" text-anchor="middle">
    <text x="1602" y="796">홈</text><text x="1687" y="796" fill="#2f66f5" font-weight="700">생활</text><text x="1772" y="796">병원</text><text x="1857" y="796">더보기</text>
  </g>
</g>
<rect x="1560" y="120" width="340" height="700" rx="26" fill="none" stroke="#dbe1ea" stroke-width="1.5"/>
<rect x="1560" y="96" width="222" height="22" rx="11" fill="#8892a6"/>
<text x="1671" y="111" font-size="11.5" font-weight="700" fill="#ffffff" text-anchor="middle">⑤ 소급 범위 밖 (4주 이전)</text>
<text x="1560" y="844" font-size="11.5" fill="#4b5468">실행 버튼을 두지 않는다. 비활성 버튼도 없다.</text>
<text x="1560" y="862" font-size="11.5" fill="#4b5468">결과가 있는 주차라면 조회만 가능하다.</text>
<text x="1560" y="880" font-size="11.5" fill="#8892a6">날짜 스트립도 읽기 전용이다.</text>
</svg>
