<?xml version="1.0" encoding="UTF-8"?>
<svg viewBox="0 0 1200 830" width="1200" height="830" xmlns="http://www.w3.org/2000/svg" font-family="Noto Sans KR, Malgun Gothic, Apple SD Gothic Neo, sans-serif"><rect x="0" y="0" width="1200" height="830" fill="#ffffff"/><rect x="12" y="10" width="206" height="810" rx="16" fill="#fafbfd" stroke="#eef0f5"/><text x="115" y="38" text-anchor="middle" font-size="13" font-weight="800" fill="#1a2233">① 어디서 오나</text><rect x="254" y="10" width="206" height="810" rx="16" fill="#fafbfd" stroke="#eef0f5"/><text x="357" y="38" text-anchor="middle" font-size="13" font-weight="800" fill="#1a2233">② 무엇으로 정리되나</text><rect x="496" y="10" width="206" height="810" rx="16" fill="#fafbfd" stroke="#eef0f5"/><text x="599" y="38" text-anchor="middle" font-size="13" font-weight="800" fill="#1a2233">③ 규칙</text><rect x="738" y="10" width="206" height="810" rx="16" fill="#fafbfd" stroke="#eef0f5"/><text x="841" y="38" text-anchor="middle" font-size="13" font-weight="800" fill="#1a2233">④ 화면에 나가는 것</text><rect x="980" y="10" width="206" height="810" rx="16" fill="#fafbfd" stroke="#eef0f5"/><text x="1083" y="38" text-anchor="middle" font-size="13" font-weight="800" fill="#1a2233">⑤ 저장 → 내일</text><text x="115" y="64" text-anchor="middle" font-size="11" fill="#8892a6">사용자가 직접 입력</text><text x="115" y="480" text-anchor="middle" font-size="11" fill="#8892a6">연동으로 들어옴</text><defs><marker id="ar" viewBox="0 0 10 10" refX="9" refY="5" markerWidth="7" markerHeight="7" orient="auto-start-reverse"><path d="M0,0 L10,5 L0,10 z" fill="#8892a6"/></marker></defs>
<path class="edge" data-a="l1" data-b="m1" d="M210,516 C236,516 236,516 262,516" fill="none" stroke="#b7bfd0" stroke-width="1.4" marker-end="url(#ar)"/>
<path class="edge" data-a="u2" data-b="m2" d="M210,162 C236,162 236,162 262,162" fill="none" stroke="#b7bfd0" stroke-width="1.4" marker-end="url(#ar)"/>
<path class="edge" data-a="u1" data-b="m2" d="M210,100 C236,100 236,162 262,162" fill="none" stroke="#b7bfd0" stroke-width="1.4" marker-end="url(#ar)"/><text class="elab" data-a="u1" data-b="m2" x="236" y="126" text-anchor="middle" font-size="10" fill="#8892a6">거의 못 먹음만</text>
<path class="edge" data-a="l2" data-b="m3" d="M210,578 C236,578 236,609 262,609" fill="none" stroke="#b7bfd0" stroke-width="1.4" marker-end="url(#ar)"/>
<path class="edge" data-a="l3" data-b="m3" d="M210,640 C236,640 236,609 262,609" fill="none" stroke="#b7bfd0" stroke-width="1.4" marker-end="url(#ar)"/>
<path class="edge" data-a="l4" data-b="m4" d="M210,702 C236,702 236,702 262,702" fill="none" stroke="#b7bfd0" stroke-width="1.4" marker-end="url(#ar)"/>
<path class="edge" data-a="u4" data-b="m4" d="M210,286 C236,286 236,702 262,702" fill="none" stroke="#b7bfd0" stroke-width="1.4" marker-end="url(#ar)"/>
<path class="edge" data-a="l5" data-b="m5" d="M210,764 C236,764 236,764 262,764" fill="none" stroke="#b7bfd0" stroke-width="1.4" marker-end="url(#ar)"/>
<path class="edge" data-a="m1" data-b="R" d="M452,516 C478,516 478,411.7 504,411.7" fill="none" stroke="#b7bfd0" stroke-width="1.4" marker-end="url(#ar)"/>
<path class="edge" data-a="m2" data-b="R" d="M452,162 C478,162 478,318 504,318" fill="none" stroke="#b7bfd0" stroke-width="1.4" marker-end="url(#ar)"/>
<path class="edge" data-a="m3" data-b="R" d="M452,609 C478,609 478,435.1 504,435.1" fill="none" stroke="#b7bfd0" stroke-width="1.4" marker-end="url(#ar)"/>
<path class="edge" data-a="m4" data-b="R" d="M452,702 C478,702 478,458.6 504,458.6" fill="none" stroke="#b7bfd0" stroke-width="1.4" marker-end="url(#ar)"/>
<path class="edge" data-a="m5" data-b="R" d="M452,764 C478,764 478,482 504,482" fill="none" stroke="#b7bfd0" stroke-width="1.4" marker-end="url(#ar)"/>
<path class="edge" data-a="u1" data-b="R" d="M210,100 C357,100 357,341.4 504,341.4" fill="none" stroke="#b7bfd0" stroke-width="1.4" marker-end="url(#ar)"/><text class="elab" data-a="u1" data-b="R" x="357" y="215.7" text-anchor="middle" font-size="10" fill="#8892a6">회복 풀</text>
<path class="edge" data-a="u3" data-b="R" d="M210,224 C357,224 357,364.9 504,364.9" fill="none" stroke="#b7bfd0" stroke-width="1.4" marker-end="url(#ar)"/><text class="elab" data-a="u3" data-b="R" x="357" y="289.4" text-anchor="middle" font-size="10" fill="#8892a6">부담 풀</text>
<path class="edge" data-a="u5" data-b="R" d="M210,348 C357,348 357,388.3 504,388.3" fill="none" stroke="#b7bfd0" stroke-width="1.4" marker-end="url(#ar)"/><text class="elab" data-a="u5" data-b="R" x="357" y="363.1" text-anchor="middle" font-size="10" fill="#8892a6">단계</text>
<path class="edge" data-a="m1" data-b="s1" d="M452,516 C599,516 599,100 746,100" fill="none" stroke="#b7bfd0" stroke-width="1.4" marker-end="url(#ar)"/><text class="elab" data-a="m1" data-b="s1" x="599" y="303" text-anchor="middle" font-size="10" fill="#8892a6">문장에 끼니 이름</text>
<path class="edge" data-a="R" data-b="s2" d="M694,340 C720,340 720,162 746,162" fill="none" stroke="#b7bfd0" stroke-width="1.4" marker-end="url(#ar)"/>
<path class="edge" data-a="m4" data-b="s3" d="M452,702 C599,702 599,702 746,702" fill="none" stroke="#b7bfd0" stroke-width="1.4" marker-end="url(#ar)"/><text class="elab" data-a="m4" data-b="s3" x="599" y="697" text-anchor="middle" font-size="10" fill="#8892a6">후보 생기면</text>
<path class="edge" data-a="R" data-b="s4" d="M694,400 C720,400 720,356 746,356" fill="none" stroke="#b7bfd0" stroke-width="1.4" marker-end="url(#ar)"/>
<path class="edge" data-a="R" data-b="s5" d="M694,460 C720,460 720,426 746,426" fill="none" stroke="#b7bfd0" stroke-width="1.4" marker-end="url(#ar)"/>
<path class="edge" data-a="s1" data-b="d1" d="M936,100 C962,100 962,131 988,131" fill="none" stroke="#b7bfd0" stroke-width="1.4" marker-end="url(#ar)"/>
<path class="edge" data-a="s2" data-b="d1" d="M936,162 C962,162 962,131 988,131" fill="none" stroke="#b7bfd0" stroke-width="1.4" marker-end="url(#ar)"/>
<path class="edge" data-a="d1" data-b="d2" d="M1178,131 C1083,131 1083,201 988,201" fill="none" stroke="#b7bfd0" stroke-width="1.4" marker-end="url(#ar)"/>
<path class="edge" data-a="s4" data-b="d3" d="M936,356 C962,356 962,391 988,391" fill="none" stroke="#b7bfd0" stroke-width="1.4" marker-end="url(#ar)"/>
<path class="edge" data-a="s5" data-b="d3" d="M936,426 C962,426 962,391 988,391" fill="none" stroke="#b7bfd0" stroke-width="1.4" marker-end="url(#ar)"/>
<path class="edge" data-a="s3" data-b="d4" d="M936,702 C962,702 962,702 988,702" fill="none" stroke="#b7bfd0" stroke-width="1.4" marker-end="url(#ar)"/>
<path class="edge" data-a="d2" data-b="m2" d="M1083,227 C1083,808 357,808 357,188" fill="none" stroke="#b7bfd0" stroke-width="1.4" stroke-dasharray="5 4" marker-end="url(#ar)"/><text class="elab" data-a="d2" data-b="m2" x="720" y="802" text-anchor="middle" font-size="10" fill="#8892a6">내일 축 상태로</text>
<path class="edge" data-a="d3" data-b="m5" d="M1083,417 C1083,801 357,801 357,790" fill="none" stroke="#b7bfd0" stroke-width="1.4" stroke-dasharray="5 4" marker-end="url(#ar)"/><text class="elab" data-a="d3" data-b="m5" x="720" y="795" text-anchor="middle" font-size="10" fill="#8892a6">내일 어제 기록으로</text>
<path class="edge" data-a="d4" data-b="m4" d="M1083,728 C1083,794 357,794 357,728" fill="none" stroke="#b7bfd0" stroke-width="1.4" stroke-dasharray="5 4" marker-end="url(#ar)"/><text class="elab" data-a="d4" data-b="m4" x="720" y="788" text-anchor="middle" font-size="10" fill="#8892a6">내일</text>
<g class="node" data-id="u1" style="cursor:pointer"><rect x="20" y="74" width="190" height="52" rx="10" fill="#fff7ec" stroke="#f0c78a" stroke-width="1.2"/><text x="30" y="92" font-size="12" font-weight="800" fill="#1a2233">고정 문항 답</text><text x="30" y="107" font-size="10" fill="#5b6b8a">지난 끼니 양 · 3지선다</text></g>
<g class="node" data-id="u2" style="cursor:pointer"><rect x="20" y="136" width="190" height="52" rx="10" fill="#fff7ec" stroke="#f0c78a" stroke-width="1.2"/><text x="30" y="154" font-size="12" font-weight="800" fill="#1a2233">회전 문항 답</text><text x="30" y="169" font-size="10" fill="#5b6b8a">행동 하나 · 3지선다</text></g>
<g class="node" data-id="u3" style="cursor:pointer"><rect x="20" y="198" width="190" height="52" rx="10" fill="#fff7ec" stroke="#f0c78a" stroke-width="1.2"/><text x="30" y="216" font-size="12" font-weight="800" fill="#1a2233">피로 답</text><text x="30" y="231" font-size="10" fill="#5b6b8a">오늘의 질문</text></g>
<g class="node" data-id="u4" style="cursor:pointer"><rect x="20" y="260" width="190" height="52" rx="10" fill="#fff7ec" stroke="#f0c78a" stroke-width="1.2"/><text x="30" y="278" font-size="12" font-weight="800" fill="#1a2233">질환 확인 답</text><text x="30" y="293" font-size="10" fill="#5b6b8a">후보 생길 때 1회</text></g>
<g class="node" data-id="u5" style="cursor:pointer"><rect x="20" y="322" width="190" height="52" rx="10" fill="#fff7ec" stroke="#f0c78a" stroke-width="1.2"/><text x="30" y="340" font-size="12" font-weight="800" fill="#1a2233">목표 완료 토글</text><text x="30" y="355" font-size="10" fill="#5b6b8a">완료 · 미완료 · 쉬기</text></g>
<g class="node" data-id="l1" style="cursor:pointer"><rect x="20" y="490" width="190" height="52" rx="10" fill="#eef6ff" stroke="#a9c4f5" stroke-width="1.2"/><text x="30" y="508" font-size="12" font-weight="800" fill="#1a2233">첫 진입 시각</text><text x="30" y="523" font-size="10" fill="#5b6b8a">앱이 기록</text></g>
<g class="node" data-id="l2" style="cursor:pointer"><rect x="20" y="552" width="190" height="52" rx="10" fill="#eef6ff" stroke="#a9c4f5" stroke-width="1.2"/><text x="30" y="570" font-size="12" font-weight="800" fill="#1a2233">건강검진 결과</text><text x="30" y="585" font-size="10" fill="#5b6b8a">병원 탭 연동</text></g>
<g class="node" data-id="l3" style="cursor:pointer"><rect x="20" y="614" width="190" height="52" rx="10" fill="#eef6ff" stroke="#a9c4f5" stroke-width="1.2"/><text x="30" y="632" font-size="12" font-weight="800" fill="#1a2233">기기 연동값</text><text x="30" y="647" font-size="10" fill="#5b6b8a">혈압계 · 혈당계 · 체중계</text></g>
<g class="node" data-id="l4" style="cursor:pointer"><rect x="20" y="676" width="190" height="52" rx="10" fill="#eef6ff" stroke="#a9c4f5" stroke-width="1.2"/><text x="30" y="694" font-size="12" font-weight="800" fill="#1a2233">진료정보 상병코드</text><text x="30" y="709" font-size="10" fill="#5b6b8a">최근 12개월</text></g>
<g class="node" data-id="l5" style="cursor:pointer"><rect x="20" y="738" width="190" height="52" rx="10" fill="#eef6ff" stroke="#a9c4f5" stroke-width="1.2"/><text x="30" y="756" font-size="12" font-weight="800" fill="#1a2233">어제 기록</text><text x="30" y="771" font-size="10" fill="#5b6b8a">어제 목표 · 어제 답</text></g>
<g class="node" data-id="m1" style="cursor:pointer"><rect x="262" y="490" width="190" height="52" rx="10" fill="#f3f0ff" stroke="#c6b8f2" stroke-width="1.2"/><text x="272" y="508" font-size="12" font-weight="800" fill="#1a2233">지난 끼니</text><text x="272" y="523" font-size="10" fill="#5b6b8a">어제 저녁 · 아침 · 점심 · 저녁</text></g>
<g class="node" data-id="m2" style="cursor:pointer"><rect x="262" y="136" width="190" height="52" rx="10" fill="#f3f0ff" stroke="#c6b8f2" stroke-width="1.2"/><text x="272" y="154" font-size="12" font-weight="800" fill="#1a2233">축 상태 (8축)</text><text x="272" y="169" font-size="10" fill="#5b6b8a">14일 답 → 관찰 중 · 양호 · 보통</text><text x="272" y="182" font-size="10" fill="#5b6b8a">개선 필요</text></g>
<g class="node" data-id="m3" style="cursor:pointer"><rect x="262" y="583" width="190" height="52" rx="10" fill="#f3f0ff" stroke="#c6b8f2" stroke-width="1.2"/><text x="272" y="601" font-size="12" font-weight="800" fill="#1a2233">검진 경계 · 저체중</text><text x="272" y="616" font-size="10" fill="#5b6b8a">검진 기본 · 기기 최신값 우선</text></g>
<g class="node" data-id="m4" style="cursor:pointer"><rect x="262" y="676" width="190" height="52" rx="10" fill="#f3f0ff" stroke="#c6b8f2" stroke-width="1.2"/><text x="272" y="694" font-size="12" font-weight="800" fill="#1a2233">확진 질환 · 금지 문구</text><text x="272" y="709" font-size="10" fill="#5b6b8a">상병코드 → 후보 → 확인 → 확진</text></g>
<g class="node" data-id="m5" style="cursor:pointer"><rect x="262" y="738" width="190" height="52" rx="10" fill="#f3f0ff" stroke="#c6b8f2" stroke-width="1.2"/><text x="272" y="756" font-size="12" font-weight="800" fill="#1a2233">어제 목표 · 어제 답</text><text x="272" y="771" font-size="10" fill="#5b6b8a">대상 끼니 · 토글 · 거의 못 먹음</text></g>
<g class="node" data-id="R" style="cursor:pointer"><rect x="504" y="300" width="190" height="200" rx="10" fill="#1a2233" stroke="#1a2233" stroke-width="1.2"/><text x="514" y="318" font-size="12" font-weight="800" fill="#fff">규칙</text><text x="514" y="342" font-size="11.5" font-weight="700" fill="#fff">① 오늘 물을 축 하나</text><text x="522" y="366" font-size="10.5" fill="#c9d3ea">확인 질문 → 연결 축 → 답 적은 축</text><text x="514" y="390" font-size="11.5" font-weight="700" fill="#fff">② 오늘 목표 축 · 풀</text><text x="522" y="414" font-size="10.5" fill="#c9d3ea">회복 → 확진 질환 → 검진 경계</text><text x="522" y="438" font-size="10.5" fill="#c9d3ea">→ 부담 → 일반</text><text x="514" y="462" font-size="11.5" font-weight="700" fill="#fff">③ 단계 → 문구 → 대상 끼니</text></g>
<g class="node" data-id="s1" style="cursor:pointer"><rect x="746" y="74" width="190" height="52" rx="10" fill="#e9f7ee" stroke="#9fd3b0" stroke-width="1.2"/><text x="756" y="92" font-size="12" font-weight="800" fill="#1a2233">질문 카드 · 식이 1</text><text x="756" y="107" font-size="10" fill="#5b6b8a">"{지난 끼니}은 평소만큼 드셨나요?"</text></g>
<g class="node" data-id="s2" style="cursor:pointer"><rect x="746" y="136" width="190" height="52" rx="10" fill="#e9f7ee" stroke="#9fd3b0" stroke-width="1.2"/><text x="756" y="154" font-size="12" font-weight="800" fill="#1a2233">질문 카드 · 식이 2</text><text x="756" y="169" font-size="10" fill="#5b6b8a">축 하나의 행동을 묻는다</text></g>
<g class="node" data-id="s3" style="cursor:pointer"><rect x="746" y="676" width="190" height="52" rx="10" fill="#e9f7ee" stroke="#9fd3b0" stroke-width="1.2"/><text x="756" y="694" font-size="12" font-weight="800" fill="#1a2233">질환 확인 질문</text><text x="756" y="709" font-size="10" fill="#5b6b8a">"지금 관리 중이신가요?"</text></g>
<g class="node" data-id="s4" style="cursor:pointer"><rect x="746" y="330" width="190" height="52" rx="10" fill="#e9f7ee" stroke="#9fd3b0" stroke-width="1.2"/><text x="756" y="348" font-size="12" font-weight="800" fill="#1a2233">홈 · 식이 타일</text><text x="756" y="363" font-size="10" fill="#5b6b8a">행동 문구만</text></g>
<g class="node" data-id="s5" style="cursor:pointer"><rect x="746" y="400" width="190" height="52" rx="10" fill="#e9f7ee" stroke="#9fd3b0" stroke-width="1.2"/><text x="756" y="418" font-size="12" font-weight="800" fill="#1a2233">목표분석 · 목표 상세</text><text x="756" y="433" font-size="10" fill="#5b6b8a">문구 + 이유 한 줄</text></g>
<g class="node" data-id="d1" style="cursor:pointer"><rect x="988" y="105" width="190" height="52" rx="10" fill="#f4f5f8" stroke="#c9cfdb" stroke-width="1.2"/><text x="998" y="123" font-size="12" font-weight="800" fill="#1a2233">식이 답 이력</text><text x="998" y="138" font-size="10" fill="#5b6b8a">끼니 단위로 쌓임</text></g>
<g class="node" data-id="d2" style="cursor:pointer"><rect x="988" y="175" width="190" height="52" rx="10" fill="#f4f5f8" stroke="#c9cfdb" stroke-width="1.2"/><text x="998" y="193" font-size="12" font-weight="800" fill="#1a2233">축 지표</text><text x="998" y="208" font-size="10" fill="#5b6b8a">사용자 × 축 · 14일 집계</text></g>
<g class="node" data-id="d3" style="cursor:pointer"><rect x="988" y="365" width="190" height="52" rx="10" fill="#f4f5f8" stroke="#c9cfdb" stroke-width="1.2"/><text x="998" y="383" font-size="12" font-weight="800" fill="#1a2233">식이 목표 기록</text><text x="998" y="398" font-size="10" fill="#5b6b8a">문구 · 이유 · 축 · 단계 · 대상 끼니</text><text x="998" y="411" font-size="10" fill="#5b6b8a">토글</text></g>
<g class="node" data-id="d4" style="cursor:pointer"><rect x="988" y="676" width="190" height="52" rx="10" fill="#f4f5f8" stroke="#c9cfdb" stroke-width="1.2"/><text x="998" y="694" font-size="12" font-weight="800" fill="#1a2233">질환 유형 상태</text><text x="998" y="709" font-size="10" fill="#5b6b8a">후보 · 확진 · 거부</text></g>
</svg>
